<?xml version="1.0" encoding="utf-8"?>
<!-- Generator: Adobe Illustrator 25.2.3, SVG Export Plug-In . SVG Version: 6.00 Build 0)  -->
<svg version="1.1" id="图层_1" xmlns="http://www.w3.org/2000/svg" xmlns:xlink="http://www.w3.org/1999/xlink" x="0px" y="0px"
	 viewBox="0 0 631.5 117.5" style="enable-background:new 0 0 631.5 117.5;" xml:space="preserve">
<style type="text/css">
	.st0{fill:#895E29;}
</style>
<g>
	<g id="レイヤー_2_2_">
		<g>
			<path class="st0" d="M76,27c-0.1,0.4-0.8,1.1-2.1,2c-1,0.7-2.2,2.3-3.8,4.6c-1.1,1.7-2.4,3.6-3.9,5.5c-2.4,3.4-3.6,5-6,8.4
				C54.8,55.2,49.4,63,43.4,70.3c-1.4,1.7-2.8,3.5-4.4,5.6c-5.8,7.4-8.7,11.1-14.6,18.5c-0.1,0.8,0.3,1.2,1.2,1.2
				c2.8,0,9.2-0.6,19.2-1.9c1.9-0.2,3.5-0.4,4.9-0.4c2.4,0,4.4-0.1,5.9-0.3c1.6-0.2,2.9-0.2,4.1-0.2c8.3,0,12.5,2.4,12.4,7.1
				c-0.1,3.9-1.3,5.9-3.6,5.9c-1.1,0-2.1-0.1-2.8-0.4c-4.1-1.3-8.3-1.9-12.7-1.9c-2.2,0-8.9,0.5-20.1,1.4c-1.2,0.1-1.8,0.1-3.1,0.2
				c-6.5,0.5-12.1,1.6-16.8,3.2c-2.7,0.9-4.3,1.4-4.7,1.4c-2,0-3-1.5-3-4.4c0-2.9,0.7-4.9,2-6.2c10.6-10.1,19.9-21.6,29-33
				c8.9-11.1,18-22.5,25.5-34.8c-0.5,0-0.7,0-1.1-0.1c-2.7-0.1-7.9,0.3-15.5,1.2c-1.7,0.2-3.4,0.4-5.2,0.6c-1.7,0.2-3.2,0.3-4.4,0.5
				c-4.1,0.6-7.5,0.9-10,0.9c-3.8,0-6.4-0.7-8-2.1c-1.6-1.4-2.3-2.9-2.3-4.7c0-1.1,0.5-2.3,1.4-3.7c0.9-1.4,1.6-2.1,2.2-2.1
				c0.4,0,1.1,0.2,2.1,0.7c1.1,0.5,2,0.8,2.7,0.8c2.9,0,5.6,0,8,0.1c2.4,0.1,5.6,0,9.7-0.5c4-0.4,7.8-0.7,11.5-0.9
				c5-0.2,10.3-0.9,15.6-2.1c2.7-0.6,4.8-1,6.3-1c1.5,0,2.2,1.3,2.1,3.8C76.7,24.8,76.5,26.1,76,27z"/>
			<path class="st0" d="M95.6,110c-4.4,0-7.9-2.1-10.7-6.3c-2.8-4.2-4-9.5-4-15.6c0-11.1,4-21.5,8.8-30.9
				c5.1-10,12.4-15.2,20.1-15.2c5.1,0,9.2,2.5,12.3,7.5c3.1,5,4.5,11,4.5,17.8c0,9.6-4.5,21.8-10.3,29.3
				C109.5,105.1,102.7,110,95.6,110z M89.4,86.4c-0.1,4.1,0.6,7.4,1.9,10c1.3,2.6,3.1,3.9,5.3,3.9c4.7,0,9.6-3.3,14.4-10
				c4.9-6.6,7.4-14,7.5-22.1c0.1-5-0.8-9-2.5-12.1c-1.8-3.1-4.2-4.6-7.3-4.6c-5.1,0-9.6,4-13.4,12C91.5,71.6,89.5,79.2,89.4,86.4z"
				/>
			<path class="st0" d="M155.5,4c2.3,0,3.4,1.9,3.3,5.6c-0.1,3.3-1.6,11.2-4.5,23.7c-1.9,7.9-3.4,16.5-4.5,26
				c-1.1,9.5-1.7,16.9-1.8,22.3c-0.1,6.7,0.1,13.3,0.7,19.9c0.1,1.3,0.2,2.2,0.1,2.7c0,2-0.6,3.8-1.7,5.2c-1.1,1.5-2.3,2.2-3.5,2.2
				c-1.7,0-2.8-1.3-3.4-4c-0.6-2.7-0.9-7-0.8-12.9c0.3-16.9,2.3-33.8,4.7-50.4c1.6-11.6,2.5-24.7,6.7-35.2
				C152.1,5.8,153.9,4,155.5,4z"/>
			<path class="st0" d="M197.6,84.7c-4.6,7.6-9.1,13.3-13.5,17.1c-4.4,3.8-8.5,5.7-12.1,5.7c-2.5,0-4.5-1.3-6.3-3.9
				c-1.7-2.6-2.6-6-2.5-10.1c0.3-12.3,5.1-24.7,11.8-34.4c5-7.2,12.2-18.2,22.6-18.4c2.6-0.1,4.6,1.9,5.9,5.8c0.4,1.3,1,1.9,1.9,1.9
				c2.5,0,3.8,1.3,3.8,3.8c0,1.3-0.2,3-0.6,5.2c-1.9,11.9-2.9,20.4-3,25.2c-0.2,9.8,1.2,15.7,4.1,17.6c1.4,1,2.1,2.2,2,3.6
				c0,1.3-0.7,2.5-2.1,3.8c-1.4,1.3-2.7,1.9-4,1.9c-2.5,0-4.4-2.1-6-6.4C198.2,98.7,197.5,92.6,197.6,84.7z M195.2,50.5
				c-4.2,0-9.2,5-14.9,15s-8.7,18.3-8.8,24.9c-0.1,4.7,1.1,7,3.5,7c3.5,0,8.4-4.5,14.8-13.5c6.4-9,9.6-17.2,9.7-24.8
				C199.7,53.4,198.2,50.5,195.2,50.5z"/>
			<path class="st0" d="M314.6,104c-0.6-0.8-1.9-1.8-3.8-3c-1.9-1.2-2.9-1.7-3-1.6c-0.2,0.2-0.3,0.3-0.6,0.5c0,0-0.6,0.5-1.8,1.4
				c-1.5,1.1-3.5,2.7-5.9,4.6c-1.4,1.2-3.6,2.3-6.6,3.5c-3,1.2-5.2,1.8-6.7,1.8c-7.5,0-13.1-2.3-16.8-6.9c-3.8-4.6-5.6-9.6-5.5-14.9
				c0.1-3.6,1.3-8.2,3.8-13.9c2.5-5.7,7.2-11.1,14.2-16.3c0.7-0.6,1.1-1.3,1.1-2.1c0-1.4-0.1-4.5-0.4-9.3c-0.3-5.2-0.5-8.3-0.5-9.3
				c0.1-7.2,1.4-12.8,3.9-16.9c2.5-4.1,6-6.1,10.7-6.1c3.2,0,5.7,1.7,7.6,5.1c1.9,3.4,2.8,7.4,2.7,12c0,2.8-0.6,5.6-1.5,8.3
				c-1,2.7-2.2,5.1-3.8,7.1c-1.5,2-4.7,5.6-9.3,10.8c-0.5,0.6-0.8,1.1-0.8,1.5c0,2.9,1.8,7.6,5.4,14.1c3.7,6.5,7.6,11.4,11.7,14.7
				c1.2,0,2.6-1.8,4-5.3c0.5-1.2,0.7-1.8,1.2-3c1-2.3,2.5-6.4,4.4-12.4c-5.9-0.6-9.3-1.2-10.3-1.9c-1-0.7-1.5-2.5-1.5-5.5
				c0-1,0.7-1.9,2-2.6c1.3-0.7,2.5-1.1,3.4-1.1c0.7,0,1.4,0.1,2,0.4c3.2,1.5,5.8,2.3,7.8,2.3c1.7,0,4.8-0.4,9.3-1
				c4.5-0.7,7.3-1,8.4-1c2.7,0,4,0.9,4,2.6c0,1.5-0.8,2.7-2.4,3.6c-1.6,0.9-5.4,2-11.5,3.3c-1,0.2-1.9,0.8-2.6,1.7
				c-0.7,0.9-1.9,3.6-3.6,8c-1.5,3.9-2.6,6.4-3.3,7.6c-2.7,4.7-4,7.3-4,7.7c0,1,1.2,2.1,3.7,3.4c2.5,1.3,5,1.9,7.7,1.9
				c0.5,0,2-0.3,4.4-0.7c2.4-0.5,3.8-0.7,4.4-0.7c2.6,0,3.9,1.1,3.9,3.4c0,0.8-1.2,2.3-3.6,4.3c-2.4,2-5.2,3-8.4,3
				C322.2,107.1,317.8,106.1,314.6,104z M301.8,94.9c-0.6-1.2-2.2-3.4-5-6.6c-2.5-2.9-4-4.8-4.4-5.6s-1.2-2.2-2.1-4.3
				c-3.4-7.2-5.3-11.1-5.7-11.7c-3.3,2-6.1,5.3-8.4,9.7c-2.3,4.4-3.5,8.5-3.6,12.2c-0.1,3.6,1.4,6.6,4.3,9.1c2.9,2.5,6,3.7,9.1,3.7
				C289.2,101.5,294.4,99.3,301.8,94.9z M289.9,51.6c6.5-6.5,9.8-13.3,9.9-20.5c0-1.6-0.6-3.2-1.8-4.8c-1.2-1.6-2.4-2.4-3.4-2.4
				c-1.5,0-2.7,1.2-3.8,3.5c-1.1,2.3-1.6,5.7-1.7,10.1C289,46.6,289.2,51.3,289.9,51.6z"/>
			<path class="st0" d="M447.8,28.4c-0.1,0-1,0-2.6-0.1c-1.6-0.1-3.3,0.1-5,0.6c-1.7,0.5-3.3,0.8-4.6,1c-0.9,0.1-1.9,0.2-3,0.5
				c-1.4,0.3-4.1,0.5-8.1,0.5c-6.1,0.1-9.9,0.7-11.5,1.6c-1.6,0.9-2.5,2.9-2.7,5.7c-0.2,2.2-0.6,4.7-1.1,7.3
				c-1.7,7.9-2.6,13.2-2.6,15.8c0.3,0,0.4,0,0.7,0.1c1.5,0.1,4.5-0.1,9.1-0.8c4.6-0.6,8-1.3,10.3-1.9c4.7-1.4,8.2-2.1,10.7-2.1
				c4,0,5.9,1.3,5.9,4c-0.1,3.3-1.4,5.3-4.1,6.1c-2.7,0.7-8.2,1.7-16.7,2.9c-10.3,1.5-15.9,2.8-16.6,3.9c-0.7,1.2-1.5,4.9-2.4,11.1
				c-0.9,6.3-1.3,10.2-1.3,12c0,0.3,0,0.4,0,0.7c0.1,2,1.1,3.2,3,3.4c0.3,0,0.5,0,0.9,0.1c1.7,0.1,3.8-0.1,6.3-0.6
				c3.7-0.7,5.5-1,9.2-1.7c3.4-0.6,7-1.3,10.4-2.1c4.3-1.1,7.2-1.8,8.3-1.8c0.9,0,1.9,0.5,3,1.4c1.1,0.9,1.6,2.4,1.6,4.5
				c0,1.5-0.3,2.5-0.9,3.1c-3.3,1.8-7.5,2.8-12.6,3c-4.4,0.2-11.4,1.1-20.8,2.9c-4.7,0.9-7.9,1.3-9.4,1.3c-3.7,0-6.1-0.4-7-1.1
				c-0.9-0.7-1.5-2.6-1.6-5.5c-0.1-0.8-0.1-1.2-0.2-2.1c0-0.1,0-0.1,0-0.2c0-0.6,0.3-2,0.9-3.9c0.9-2.8,1.9-8.3,3.1-16.3
				c1.2-8,1.9-14.5,2.4-19.1c0.2-1.6,0.5-3.6,0.9-5.9c1.6-9.6,2.4-17.3,2.5-22.9c0-0.3-0.3-1-0.9-2.2c-0.2-0.2-0.3-0.4-0.3-0.6
				c-0.2-0.9-0.4-1.7-0.6-2.3c-0.2-0.6-0.3-1.2-0.3-2c0-0.2,0-0.4,0-0.6c0-0.9,0.5-1.7,1.3-2.4c0.9-0.7,1.7-1,2.5-1
				c0.1,0,0.1,0,0.1,0c1.3,0,2.9,0.1,4.6,0.4c0.1,0,0.1,0,0.2,0c0.7,0,4.3-0.4,10.6-1.2c6.3-0.8,13.9-2.1,22.8-4
				c0.9-0.2,1.5-0.3,1.7-0.3c0.3,0,0.4,0,0.7-0.1c2.5-0.2,4.2,0.1,5.1,0.9c0.9,0.8,1.6,2.5,1.7,4.8c0,1.1-0.5,2.2-1.3,3.3
				C448.9,27.7,448.2,28.3,447.8,28.4z"/>
			<path class="st0" d="M467.2,107c0.1-2.3-1.2-8.4-3.8-18.1c-3.4-12.1-7.3-25.5-7.3-37.9c0-5.6,1.6-8.5,4.6-8.5
				c2.9,0,4.4,2.5,4.3,7.6c-0.1,4.1,0,7.3,0.2,9.6c0.2,2.2,0.9,6.3,2.1,12.3c1.2,5.9,2.5,11.4,4,16.5c0.8,2.7,1.3,4.7,1.6,6.1
				c0.7-1.3,1.6-3.1,2.7-5.3c4.5-9.2,9-18.5,13.9-27.6c3.4-6.4,6.2-11.1,8.4-14.1c2.2-2.9,3.7-4.7,4.7-5.3c1-0.6,2-0.9,3-0.9
				c1.2,0,2.2,0.6,2.9,1.7c0.7,1.1,1,2.4,1,3.9c0,1.9-1.4,3.9-4,6.2c-2.5,2.1-6.2,7.4-11.1,15.8c-6,10.4-11.2,21.2-16,32.2
				c-2.9,6.6-5.2,9.9-6.7,9.9C470.3,111,468.8,109.7,467.2,107z"/>
			<path class="st0" d="M544,84.2c-4.6,7.6-9.1,13.3-13.5,17c-4.4,3.8-8.5,5.7-12.1,5.7c-2.5,0-4.5-1.3-6.3-3.9
				c-1.7-2.6-2.6-6-2.5-10.1c0.3-12.2,5.1-24.6,11.8-34.2c5-7.2,12.2-18.1,22.6-18.3c2.6,0,4.6,1.9,5.9,5.8c0.4,1.3,1,1.9,1.9,1.9
				c2.5,0,3.8,1.2,3.8,3.7c0,1.2-0.2,3-0.6,5.1c-1.9,11.9-2.9,20.2-3,25.1c-0.2,9.7,1.2,15.6,4.1,17.5c1.4,1,2.1,2.1,2,3.6
				c0,1.2-0.7,2.5-2.1,3.8c-1.4,1.3-2.7,1.9-4,1.9c-2.5,0-4.4-2.1-6-6.4C544.5,98.2,543.8,92.1,544,84.2z M541.6,50.2
				c-4.2,0-9.2,5-14.9,15c-5.7,10-8.7,18.2-8.8,24.8c-0.1,4.6,1.1,6.9,3.5,6.9c3.5,0,8.4-4.5,14.8-13.4c6.4-8.9,9.6-17.1,9.7-24.6
				C546,53.1,544.6,50.2,541.6,50.2z"/>
			<path class="st0" d="M602.1,59.7c-1.7,0-3.5,1.4-5.5,4.1c-2,2.7-5.1,8.9-9.3,18.4c-5.5,12.7-9,20.1-10.6,21.8
				c-1.6,1.8-2.9,2.7-3.9,2.7c-3.8,0-5.6-2.3-5.5-6.9c0-1.9,0.3-4.7,0.9-8.2c1.7-12.9,2.9-25.5,3.3-38.4c0-1.5,0.6-3.2,1.6-5.1
				c1.1-1.9,2.1-2.8,3-2.8c1.7,0,2.8,0.6,3.5,1.9c0.7,1.3,1,3.9,0.9,7.8c-0.1,4.1-1.2,12.4-3.3,25.1c-0.7,4.2-1.1,6.8-1.1,8
				c0,0.6,0.1,1,0.4,1c0.5,0,2.8-4.8,6.9-14.4c4.1-9.8,7.7-16.7,10.8-20.6c3.1-4,6.4-6,10-6c2.9,0,5.2,1.6,6.9,4.9
				c1.7,3.3,3,9.3,3.6,18c0.8,9.9,1.4,16.1,2.1,18.5c0.7,2.4,1.8,3.6,3.4,3.6c1,0,2.2-0.4,3.7-1.3c0.3-0.2,0.4-0.2,0.6-0.2
				c1.4,0,2,1,2,3c0,1.8-1,3.6-2.9,5.6c-1.9,2-4.2,3-6.8,3c-2.7,0-4.8-1.3-6.2-4.1c-1.4-2.7-2.5-10-3.2-21.7
				C606.8,65.6,605,59.7,602.1,59.7z"/>
		</g>
	</g>
</g>
</svg>
